<svg width="25" height="15" viewBox="0 0 25 15" fill="none" xmlns="http://www.w3.org/2000/svg">
<path d="M1.40625 10.8438V10.3438V4.71875V4.21875H1.90625H6.97398C7.02872 4.14488 7.09785 4.05442 7.18146 3.95205C7.40594 3.67721 7.73453 3.31684 8.17478 2.95398C9.05749 2.22645 10.3916 1.48786 12.2237 1.41258L13.5035 1.35999L12.5978 2.26571L9.46465 5.3989C9.38532 5.47823 9.38532 5.60686 9.46465 5.6862C10.0523 6.27381 10.8233 6.56783 11.5969 6.5678L1.40625 10.8438ZM1.40625 10.8438H1.90625H1.40625ZM1.40625 10.8438H1.90625H1.40625ZM1.90625 10.8438H6.9737C7.03203 10.9224 7.10659 11.0196 7.19752 11.13C7.43366 11.4166 7.7802 11.7918 8.24415 12.1652C9.17479 12.9141 10.5804 13.6562 12.5 13.6562C14.4641 13.6562 16.3444 12.7952 17.6319 11.3309L17.8822 11.0461L17.6756 10.7282L14.4703 5.79746L14.1382 5.28651L1.90625 10.8438ZM1.90625 10.8438L14.1382 5.28651L1.90625 10.8438ZM14.1382 5.28651L13.7019 5.71207L14.1382 5.28651ZM14.1382 5.28651L13.7019 5.71207L14.1382 5.28651ZM13.7019 5.71207C13.1178 6.28192 12.3584 6.56771 11.597 6.5678L13.7019 5.71207ZM18.0805 3.63096L18.2305 3.8125H18.466H23.5C23.7761 3.8125 24 4.03636 24 4.3125V10.75C24 11.0261 23.7761 11.25 23.5 11.25H18.466H18.2305L18.0805 11.4315C16.7149 13.0845 14.6521 14.0625 12.5 14.0625C10.3479 14.0625 8.28509 13.0845 6.91945 11.4315L6.76947 11.25H6.53398H1.5C1.22386 11.25 1 11.0261 1 10.75V4.3125C1 4.03636 1.22386 3.8125 1.5 3.8125H6.53398H6.76947L6.91945 3.63096C8.28509 1.97799 10.3479 1 12.5 1C14.6521 1 16.7149 1.97799 18.0805 3.63096ZM23.0938 10.8438H23.5938V10.3438V4.7187V4.2187H23.0938H18.0237C17.9859 4.16784 17.9412 4.10864 17.8895 4.04306C17.7197 3.82727 17.4763 3.54328 17.1518 3.24145C16.5025 2.6374 15.5272 1.96081 14.1677 1.61581L13.8921 1.54589L13.6911 1.7469L10.3343 5.10376L9.83382 5.60426L10.4728 5.9087C11.4416 6.37026 12.6393 6.20181 13.4422 5.39888V5.39887L14.1683 4.67277L15.3062 5.81077L15.3063 5.81079C15.7984 6.30292 16.4552 6.57503 17.1514 6.57503C17.5515 6.57503 17.9399 6.48507 18.2922 6.31364C18.4011 6.26063 18.5156 6.23717 18.6095 6.2419C18.6994 6.24643 18.753 6.27448 18.7865 6.30795C18.8283 6.34977 18.8427 6.39892 18.8417 6.43261C18.8412 6.44828 18.8376 6.45787 18.835 6.46287C18.8329 6.4668 18.8289 6.47292 18.8173 6.48061L19.0945 6.89678L18.8173 6.48061C18.3287 6.80598 17.7549 6.98128 17.1514 6.98128C16.997 6.98128 16.8444 6.9696 16.6945 6.94698L15.5943 6.78107L16.2007 7.7139L18.0874 10.6163L18.2352 10.8438H18.5066H23.0938Z" stroke="#021B51"/>
</svg>
